<?xml version="1.0" encoding="UTF-8"?>
<svg version="1.1" xmlns="http://www.w3.org/2000/svg" width="94" height="96">
<path d="M0 0 C31.02 0 62.04 0 94 0 C94 31.68 94 63.36 94 96 C62.98 96 31.96 96 0 96 C0 64.32 0 32.64 0 0 Z " fill="#FEFDFE" transform="translate(0,0)"/>
<path d="M0 0 C5.98444085 4.51553264 9.75274704 11.52898892 13.21875 18.046875 C13.21875 18.706875 13.21875 19.366875 13.21875 20.046875 C15.27086602 18.10276509 16.67477157 16.35452747 18.25390625 13.95703125 C19.89581589 11.97797322 20.77469362 11.15461361 23.2956543 10.54296875 C25.71195335 10.42058577 28.0534229 10.47327323 30.46875 10.609375 C31.29632813 10.62806641 32.12390625 10.64675781 32.9765625 10.66601562 C39.02121196 10.84933696 39.02121196 10.84933696 40.21875 12.046875 C40.7314749 17.12953921 39.52602724 19.97939532 36.90625 24.296875 C35.98392578 25.85148437 35.98392578 25.85148437 35.04296875 27.4375 C33.21875 30.046875 33.21875 30.046875 30.21875 32.046875 C27.35970836 32.29498558 24.63990622 32.41707457 21.78125 32.421875 C21.01748047 32.44636719 20.25371094 32.47085938 19.46679688 32.49609375 C15.67987035 32.51586882 13.83049274 32.51195387 10.7421875 30.1640625 C9.0761812 27.84874093 8.2466435 25.70730523 7.21875 23.046875 C5.6749242 20.29638076 3.95772661 17.67701691 2.21875 15.046875 C1.76371094 14.30179688 1.30867188 13.55671875 0.83984375 12.7890625 C-1.81100383 8.75164433 -1.81100383 8.75164433 -5.765625 6.1484375 C-8.13731741 5.57779499 -8.13731741 5.57779499 -11.78125 6.046875 C-17.41339771 9.9357389 -21.62953152 17.59171956 -23.78125 24.046875 C-20.9795133 24.33858408 -20.9795133 24.33858408 -17.78125 23.046875 C-16.05983801 20.55320048 -14.70406333 18.01690567 -13.37109375 15.296875 C-11.78125 13.046875 -11.78125 13.046875 -9.09765625 12.234375 C-8.33324219 12.1725 -7.56882813 12.110625 -6.78125 12.046875 C-2.05479818 17.19036669 0.98257147 22.88654618 4.21875 29.046875 C6.43700583 33.78047928 6.43700583 33.78047928 10.21875 37.046875 C13.56030338 37.32387219 16.90160874 37.49388204 20.25 37.66796875 C23.21875 38.046875 23.21875 38.046875 25.21875 40.046875 C25.11088576 45.93446463 22.00172937 50.28274074 18.96875 55.109375 C18.25138672 56.29370117 18.25138672 56.29370117 17.51953125 57.50195312 C10.52036564 68.81632246 10.52036564 68.81632246 4.21875 71.046875 C-0.76063244 71.77128745 -6.03921773 72.03342444 -10.46875 69.359375 C-15.94386936 64.79898503 -19.64063447 57.32810605 -22.78125 51.046875 C-23.44125 51.046875 -24.10125 51.046875 -24.78125 51.046875 C-26.16248963 53.01409508 -27.49613126 55.01555828 -28.78125 57.046875 C-30.33731751 58.60294251 -31.84082371 58.17658269 -34 58.1796875 C-35.27423828 58.18162109 -35.27423828 58.18162109 -36.57421875 58.18359375 C-37.91419922 58.17779297 -37.91419922 58.17779297 -39.28125 58.171875 C-40.17457031 58.17574219 -41.06789063 58.17960937 -41.98828125 58.18359375 C-42.83777344 58.18230469 -43.68726563 58.18101563 -44.5625 58.1796875 C-45.34689453 58.17855957 -46.13128906 58.17743164 -46.93945312 58.17626953 C-48.78125 58.046875 -48.78125 58.046875 -49.78125 57.046875 C-50.28919975 52.02542885 -49.20339711 49.42980257 -46.40625 45.296875 C-45.77976562 44.35328125 -45.15328125 43.4096875 -44.5078125 42.4375 C-41.41914853 38.16088835 -41.41914853 38.16088835 -38.8894043 37.70874023 C-36.4152982 37.59686991 -33.94505425 37.52672072 -31.46875 37.484375 C-30.61345703 37.43474609 -29.75816406 37.38511719 -28.87695312 37.33398438 C-22.71607457 37.23376869 -22.71607457 37.23376869 -20.16870117 39.44946289 C-18.85178242 41.25550172 -17.79798331 43.05792746 -16.78125 45.046875 C-16.23339844 45.99691406 -15.68554688 46.94695312 -15.12109375 47.92578125 C-14.65832031 48.81136719 -14.19554687 49.69695312 -13.71875 50.609375 C-10.34381859 57.82821243 -10.34381859 57.82821243 -4.78125 63.046875 C-0.49038832 63.2852562 2.55905262 63.36976884 6.21875 61.046875 C7.55900385 59.36049503 7.55900385 59.36049503 8.578125 57.3515625 C8.97128906 56.63613281 9.36445312 55.92070313 9.76953125 55.18359375 C10.16527344 54.43722656 10.56101563 53.69085938 10.96875 52.921875 C11.37996094 52.16777344 11.79117188 51.41367188 12.21484375 50.63671875 C13.22610347 48.77882299 14.22376405 46.91353668 15.21875 45.046875 C10.10876399 46.01671618 10.10876399 46.01671618 6.3984375 49.39453125 C5.96789063 50.29042969 5.53734375 51.18632813 5.09375 52.109375 C3.7734375 54.83203125 3.7734375 54.83203125 2.21875 57.046875 C-0.4609375 57.85546875 -0.4609375 57.85546875 -2.78125 58.046875 C-7.05063883 51.86881822 -10.94714249 45.50945668 -14.70874023 39.01342773 C-16.6391757 35.43525212 -16.6391757 35.43525212 -19.78125 33.046875 C-21.94463091 32.84192312 -24.11234005 32.68123225 -26.28125 32.546875 C-32.55902778 32.15798611 -32.55902778 32.15798611 -34.78125 31.046875 C-35.62614407 25.55506358 -33.62767065 22.87907845 -30.5625 18.62109375 C-27.93983013 14.83087567 -25.79424158 10.79013293 -23.58984375 6.74609375 C-20.86528703 2.67985467 -17.99577636 0.52810243 -13.46875 -1.265625 C-8.54185131 -2.18419933 -4.45425923 -2.38341941 0 0 Z " fill="#E86AE6" transform="translate(49.78125,21.953125)"/>
<path d="M0 0 C0.85529297 -0.04962891 1.71058594 -0.09925781 2.59179688 -0.15039062 C8.75267543 -0.25060631 8.75267543 -0.25060631 11.30004883 1.96508789 C12.61696758 3.77112672 13.67076669 5.57355246 14.6875 7.5625 C15.23535156 8.51253906 15.78320312 9.46257812 16.34765625 10.44140625 C16.81042969 11.32699219 17.27320313 12.21257812 17.75 13.125 C21.12493141 20.34383743 21.12493141 20.34383743 26.6875 25.5625 C32.56173446 25.9696873 32.56173446 25.9696873 37.6875 23.5625 C39.0578055 21.58764795 40.39422372 19.58863283 41.6875 17.5625 C42.3475 17.2325 43.0075 16.9025 43.6875 16.5625 C44.31337492 26.6460403 44.31337492 26.6460403 41.9375 30.125 C36.16192713 33.81494933 31.52136033 34.43863594 24.6875 33.5625 C17.06032742 31.02010914 13.35072874 22.1116382 9.6875 15.5625 C9.3575 14.9025 9.0275 14.2425 8.6875 13.5625 C8.0275 13.5625 7.3675 13.5625 6.6875 13.5625 C5.30626037 15.52972008 3.97261874 17.53118328 2.6875 19.5625 C1.13143249 21.11856751 -0.37207371 20.69220769 -2.53125 20.6953125 C-3.80548828 20.69724609 -3.80548828 20.69724609 -5.10546875 20.69921875 C-6.44544922 20.69341797 -6.44544922 20.69341797 -7.8125 20.6875 C-8.70582031 20.69136719 -9.59914063 20.69523437 -10.51953125 20.69921875 C-11.36902344 20.69792969 -12.21851563 20.69664063 -13.09375 20.6953125 C-13.87814453 20.69418457 -14.66253906 20.69305664 -15.47070312 20.69189453 C-17.3125 20.5625 -17.3125 20.5625 -18.3125 19.5625 C-18.82044975 14.54105385 -17.73464711 11.94542757 -14.9375 7.8125 C-14.31101562 6.86890625 -13.68453125 5.9253125 -13.0390625 4.953125 C-9.18855263 -0.37835021 -6.22005497 0.10636525 0 0 Z " fill="#ED71D2" transform="translate(18.3125,59.4375)"/>
<path d="M0 0 C0.82757813 0.01869141 1.65515625 0.03738281 2.5078125 0.05664062 C8.55246196 0.23996196 8.55246196 0.23996196 9.75 1.4375 C10.2627249 6.52016421 9.05727724 9.37002032 6.4375 13.6875 C5.82261719 14.72390625 5.20773438 15.7603125 4.57421875 16.828125 C2.75 19.4375 2.75 19.4375 -0.25 21.4375 C-3.14744159 21.65861299 -5.91692482 21.76201483 -8.8125 21.75 C-9.59302734 21.76611328 -10.37355469 21.78222656 -11.17773438 21.79882812 C-13.44140625 21.80078125 -13.44140625 21.80078125 -17.25 21.4375 C-19.61574234 17.8888865 -19.35865265 16.8610475 -18.875 12.75 C-18.76414063 11.75613281 -18.65328125 10.76226562 -18.5390625 9.73828125 C-18.44367187 8.97902344 -18.34828125 8.21976563 -18.25 7.4375 C-17.92 8.0975 -17.59 8.7575 -17.25 9.4375 C-15.19788398 7.49339009 -13.79397843 5.74515247 -12.21484375 3.34765625 C-8.79599578 -0.77321518 -5.02358081 -0.28307479 0 0 Z " fill="#5AB9FD" transform="translate(80.25,32.5625)"/>
<path d="M0 0 C0.90492187 0.02320313 1.80984375 0.04640625 2.7421875 0.0703125 C4.10730469 0.09738281 4.10730469 0.09738281 5.5 0.125 C6.19867187 0.14820313 6.89734375 0.17140625 7.6171875 0.1953125 C7.2871875 0.8553125 6.9571875 1.5153125 6.6171875 2.1953125 C6.46713777 3.568776 6.36880744 4.9481651 6.30078125 6.328125 C6.25888672 7.13378906 6.21699219 7.93945312 6.17382812 8.76953125 C6.13451172 9.61128906 6.09519531 10.45304687 6.0546875 11.3203125 C6.01150391 12.16980469 5.96832031 13.01929687 5.92382812 13.89453125 C5.81764514 15.99459473 5.71690253 18.09493198 5.6171875 20.1953125 C2.97128736 20.22215929 0.32565654 20.24207607 -2.3203125 20.2578125 C-3.07505859 20.26619141 -3.82980469 20.27457031 -4.60742188 20.28320312 C-6.53275563 20.29183691 -8.45816831 20.24755583 -10.3828125 20.1953125 C-11.3828125 19.1953125 -11.3828125 19.1953125 -11.65625 16.4921875 C-11.33129392 12.57414568 -10.19750707 10.68069794 -8.0078125 7.4453125 C-7.38132812 6.50171875 -6.75484375 5.558125 -6.109375 4.5859375 C-2.97332557 0.24371521 -2.97332557 0.24371521 0 0 Z " fill="#FC9870" transform="translate(11.3828125,59.8046875)"/>
<path d="M0 0 C1.79133978 -0.05391993 3.58313899 -0.09275571 5.375 -0.125 C6.37273437 -0.14820313 7.37046875 -0.17140625 8.3984375 -0.1953125 C11 0 11 0 13 2 C12.92618317 7.99761768 9.6013407 12.4769128 6.5 17.375 C5.98824219 18.20644531 5.47648437 19.03789063 4.94921875 19.89453125 C2.19722532 24.31659984 2.19722532 24.31659984 1 26 C0.67 26 0.34 26 0 26 C-1.7610915 14.34233993 -1.7610915 14.34233993 0.9375 9.75 C1.618125 8.8425 2.29875 7.935 3 7 C2.01 7 1.02 7 0 7 C0 4.69 0 2.38 0 0 Z " fill="#9394FC" transform="translate(62,60)"/>
<path d="M0 0 C0.83595703 0.02707031 1.67191406 0.05414063 2.53320312 0.08203125 C4.58575247 0.15240437 6.63696591 0.26001678 8.6875 0.375 C8.6875 0.705 8.6875 1.035 8.6875 1.375 C3.7375 1.375 -1.2125 1.375 -6.3125 1.375 C-7.46370602 5.97982407 -7.67997657 10.43902691 -7.91796875 15.15039062 C-8.21009026 20.27259026 -8.21009026 20.27259026 -9.3125 21.375 C-15.1535596 21.74586093 -15.1535596 21.74586093 -17.3125 21.375 C-19.67824234 17.8263865 -19.42115265 16.7985475 -18.9375 12.6875 C-18.82664063 11.69363281 -18.71578125 10.69976562 -18.6015625 9.67578125 C-18.50617187 8.91652344 -18.41078125 8.15726563 -18.3125 7.375 C-17.9825 8.035 -17.6525 8.695 -17.3125 9.375 C-15.25838496 7.42899628 -13.85876636 5.68392876 -12.28125 3.28125 C-8.85044496 -0.85680166 -5.03217097 -0.30979427 0 0 Z " fill="#909EFC" transform="translate(80.3125,32.625)"/>
<path d="M0 0 C0.66 0.33 1.32 0.66 2 1 C1.25 6.75 1.25 6.75 -1 9 C-1.09765625 2.84765625 -1.09765625 2.84765625 -1 1 C-0.67 0.67 -0.34 0.34 0 0 Z " fill="#7EACFD" transform="translate(73,61)"/>
</svg>
